<svg xmlns="http://www.w3.org/2000/svg" width="277.03" height="166.688" viewBox="0 0 73.297 44.103" xmlns:v="https://vecta.io/nano"><style><![CDATA[.R{stroke-width:.193}.S{stroke-width:.192}.T{stroke-width:.265}.U{font-family:sans-serif}.V{font-weight:bold}]]></style><g transform="matrix(.646687 0 0 .646687 .850189 -144.90463)" stroke="#317fc7" stroke-linejoin="round"><path d="M-.999 239.522h87.93v43.965H-.999z" fill="#30b5ff" stroke-width=".367" paint-order="stroke fill markers"/><path transform="matrix(1 0 -.735147 .677908 0 0)" d="M258.747 330.89h87.93v22.435h-87.93z" fill="#0075b5" stroke-width=".262" paint-order="stroke fill markers"/><path transform="matrix(.738909 -.673805 0 1 0 0)" d="M117.648 318.766h22.6v43.822h-22.6z" fill="#00466d" stroke-width=".186" paint-order="stroke fill markers"/></g><g stroke="#000"><path d="M.121 42.052h20.075" fill="#e3dbdb" class="R"/><path d="M36.833 42.052h20.075" fill="none" class="S"/><g fill="none"><path d="M.121 42.052l.967-.966m-.967.966l.967.966" class="S"/><path d="M56.907 42.052l-.967-.966m.967.966l-.967.966" class="T"/></g><g transform="matrix(.987041 0 0 1.62425 .33213 -397.65344)" fill="#e32424"><path d="M71.639 262.252v-6.875" class="R"/><g class="S"><path d="M71.639 262.252l-.966-.967"/><path d="M71.639 262.252l.966-.967"/></g></g></g><text xml:space="preserve" x="21.82" y="43.228" font-size="3.981" fill="#000" class="U"><tspan x="21.82" y="43.228" class="V">length</tspan></text><text xml:space="preserve" x="-16.73" y="72.274" transform="rotate(270)" font-size="4.826" fill="#000" class="U"><tspan x="-16.73" y="72.274" fill="#db4242" class="V">depth</tspan></text><g stroke="#000" fill="none"><path d="M60.358 42.914l-.008-1.367m.008 1.367l1.367-.009" class="T"/><path d="M61.334 41.927l-.975.988" class="R"/><path d="M71.783 31.805l-1.367.009m1.367-.009l.008 1.367" class="T"/><path d="M71.783 31.805l-.975.988" class="R"/></g><text xml:space="preserve" x="13.14" y="74.762" transform="rotate(313.931)" font-size="3.598" fill="#000" class="U"><tspan x="13.14" y="74.762" class="V">width</tspan></text></svg>